<mxfile host="app.diagrams.net" modified="2023-07-21T06:05:50.348Z" agent="Mozilla/5.0 (Windows NT 10.0; Win64; x64) AppleWebKit/537.36 (KHTML, like Gecko) Chrome/115.0.0.0 Safari/537.36" etag="eiLWFbX1KdPwFGZTcOQl" version="21.6.3" type="google">
  <diagram name="Page-1" id="J34ARrF7BDetlsShd3_W">
    <mxGraphModel grid="1" page="1" gridSize="10" guides="1" tooltips="1" connect="1" arrows="1" fold="1" pageScale="1" pageWidth="850" pageHeight="1100" background="none" math="0" shadow="0">
      <root>
        <mxCell id="0" />
        <mxCell id="1" parent="0" />
        <mxCell id="VOaeHLwioiHnUTtzUJCT-1" value="" style="rounded=1;whiteSpace=wrap;html=1;" vertex="1" parent="1">
          <mxGeometry x="290" y="50" width="300" height="740" as="geometry" />
        </mxCell>
        <mxCell id="VOaeHLwioiHnUTtzUJCT-2" value="&lt;b&gt;&lt;font style=&quot;font-size: 10px;&quot;&gt;B&lt;font style=&quot;&quot;&gt;anking&lt;/font&gt;&lt;/font&gt; &lt;font style=&quot;font-size: 10px;&quot;&gt;System&lt;br&gt;&amp;lt;&amp;lt;Loan&lt;br&gt;&lt;/font&gt;&lt;/b&gt;" style="text;html=1;strokeColor=none;fillColor=none;align=center;verticalAlign=middle;whiteSpace=wrap;rounded=0;" vertex="1" parent="1">
          <mxGeometry x="386.25" y="60" width="97.5" height="30" as="geometry" />
        </mxCell>
        <mxCell id="VOaeHLwioiHnUTtzUJCT-3" value="Customer" style="shape=umlActor;verticalLabelPosition=bottom;verticalAlign=top;html=1;outlineConnect=0;" vertex="1" parent="1">
          <mxGeometry x="80" y="250" width="30" height="60" as="geometry" />
        </mxCell>
        <mxCell id="VOaeHLwioiHnUTtzUJCT-4" value="&lt;font style=&quot;font-size: 14px;&quot;&gt;Banksystem&lt;/font&gt;" style="shape=umlActor;verticalLabelPosition=bottom;verticalAlign=top;html=1;outlineConnect=0;" vertex="1" parent="1">
          <mxGeometry x="800" y="280" width="30" height="60" as="geometry" />
        </mxCell>
        <mxCell id="VOaeHLwioiHnUTtzUJCT-5" value="Apply Loan" style="ellipse;whiteSpace=wrap;html=1;" vertex="1" parent="1">
          <mxGeometry x="375" y="100" width="130" height="70" as="geometry" />
        </mxCell>
        <mxCell id="VOaeHLwioiHnUTtzUJCT-6" value="Check Status&amp;nbsp;" style="ellipse;whiteSpace=wrap;html=1;" vertex="1" parent="1">
          <mxGeometry x="370" y="190" width="140" height="70" as="geometry" />
        </mxCell>
        <mxCell id="VOaeHLwioiHnUTtzUJCT-7" value="Interest&amp;nbsp; rate" style="ellipse;whiteSpace=wrap;html=1;" vertex="1" parent="1">
          <mxGeometry x="370" y="290" width="140" height="70" as="geometry" />
        </mxCell>
        <mxCell id="VOaeHLwioiHnUTtzUJCT-8" value="EMI" style="ellipse;whiteSpace=wrap;html=1;" vertex="1" parent="1">
          <mxGeometry x="370" y="390" width="140" height="70" as="geometry" />
        </mxCell>
        <mxCell id="VOaeHLwioiHnUTtzUJCT-9" value="Transfer Money" style="ellipse;whiteSpace=wrap;html=1;" vertex="1" parent="1">
          <mxGeometry x="370" y="500" width="140" height="70" as="geometry" />
        </mxCell>
        <mxCell id="VOaeHLwioiHnUTtzUJCT-10" value="Partial payment" style="ellipse;whiteSpace=wrap;html=1;" vertex="1" parent="1">
          <mxGeometry x="370" y="610" width="140" height="70" as="geometry" />
        </mxCell>
        <mxCell id="VOaeHLwioiHnUTtzUJCT-11" value="" style="endArrow=classicThin;html=1;rounded=0;exitX=1;exitY=0.3333333333333333;exitDx=0;exitDy=0;exitPerimeter=0;entryX=0;entryY=0.5;entryDx=0;entryDy=0;endFill=1;" edge="1" parent="1" source="VOaeHLwioiHnUTtzUJCT-3" target="VOaeHLwioiHnUTtzUJCT-5">
          <mxGeometry width="50" height="50" relative="1" as="geometry">
            <mxPoint x="340" y="330" as="sourcePoint" />
            <mxPoint x="390" y="280" as="targetPoint" />
            <Array as="points" />
          </mxGeometry>
        </mxCell>
        <mxCell id="VOaeHLwioiHnUTtzUJCT-12" value="" style="endArrow=classic;html=1;rounded=0;entryX=0;entryY=0.5;entryDx=0;entryDy=0;" edge="1" parent="1" target="VOaeHLwioiHnUTtzUJCT-6">
          <mxGeometry width="50" height="50" relative="1" as="geometry">
            <mxPoint x="110" y="270" as="sourcePoint" />
            <mxPoint x="385" y="145" as="targetPoint" />
            <Array as="points" />
          </mxGeometry>
        </mxCell>
        <mxCell id="VOaeHLwioiHnUTtzUJCT-13" value="" style="endArrow=classic;html=1;rounded=0;entryX=0;entryY=0.5;entryDx=0;entryDy=0;exitX=1;exitY=0.3333333333333333;exitDx=0;exitDy=0;exitPerimeter=0;" edge="1" parent="1" source="VOaeHLwioiHnUTtzUJCT-3" target="VOaeHLwioiHnUTtzUJCT-7">
          <mxGeometry width="50" height="50" relative="1" as="geometry">
            <mxPoint x="120" y="280" as="sourcePoint" />
            <mxPoint x="380" y="235" as="targetPoint" />
            <Array as="points" />
          </mxGeometry>
        </mxCell>
        <mxCell id="VOaeHLwioiHnUTtzUJCT-14" value="" style="endArrow=classic;html=1;rounded=0;entryX=0;entryY=0.5;entryDx=0;entryDy=0;" edge="1" parent="1" target="VOaeHLwioiHnUTtzUJCT-8">
          <mxGeometry width="50" height="50" relative="1" as="geometry">
            <mxPoint x="110" y="270" as="sourcePoint" />
            <mxPoint x="380" y="335" as="targetPoint" />
            <Array as="points" />
          </mxGeometry>
        </mxCell>
        <mxCell id="VOaeHLwioiHnUTtzUJCT-15" value="" style="endArrow=classic;html=1;rounded=0;entryX=0.024;entryY=0.376;entryDx=0;entryDy=0;entryPerimeter=0;" edge="1" parent="1" target="VOaeHLwioiHnUTtzUJCT-9">
          <mxGeometry width="50" height="50" relative="1" as="geometry">
            <mxPoint x="110" y="270" as="sourcePoint" />
            <mxPoint x="380" y="435" as="targetPoint" />
            <Array as="points" />
          </mxGeometry>
        </mxCell>
        <mxCell id="VOaeHLwioiHnUTtzUJCT-16" value="" style="endArrow=classic;html=1;rounded=0;entryX=0;entryY=0.5;entryDx=0;entryDy=0;" edge="1" parent="1" target="VOaeHLwioiHnUTtzUJCT-10">
          <mxGeometry width="50" height="50" relative="1" as="geometry">
            <mxPoint x="120" y="280" as="sourcePoint" />
            <mxPoint x="383" y="536" as="targetPoint" />
            <Array as="points" />
          </mxGeometry>
        </mxCell>
        <mxCell id="VOaeHLwioiHnUTtzUJCT-17" value="" style="endArrow=classic;html=1;rounded=0;exitX=0;exitY=0.3333333333333333;exitDx=0;exitDy=0;exitPerimeter=0;entryX=0.733;entryY=0.273;entryDx=0;entryDy=0;entryPerimeter=0;" edge="1" parent="1" source="VOaeHLwioiHnUTtzUJCT-4" target="VOaeHLwioiHnUTtzUJCT-1">
          <mxGeometry width="50" height="50" relative="1" as="geometry">
            <mxPoint x="300" y="490" as="sourcePoint" />
            <mxPoint x="720" y="200" as="targetPoint" />
          </mxGeometry>
        </mxCell>
        <mxCell id="VOaeHLwioiHnUTtzUJCT-18" value="Update Balance" style="edgeLabel;html=1;align=center;verticalAlign=middle;resizable=0;points=[];" connectable="0" vertex="1" parent="VOaeHLwioiHnUTtzUJCT-17">
          <mxGeometry x="-0.0208" y="2" relative="1" as="geometry">
            <mxPoint as="offset" />
          </mxGeometry>
        </mxCell>
        <mxCell id="VOaeHLwioiHnUTtzUJCT-19" value="" style="endArrow=classic;html=1;rounded=0;exitX=0;exitY=0.3333333333333333;exitDx=0;exitDy=0;exitPerimeter=0;" edge="1" parent="1" source="VOaeHLwioiHnUTtzUJCT-4" target="VOaeHLwioiHnUTtzUJCT-7">
          <mxGeometry width="50" height="50" relative="1" as="geometry">
            <mxPoint x="810" y="310" as="sourcePoint" />
            <mxPoint x="520" y="240" as="targetPoint" />
          </mxGeometry>
        </mxCell>
        <mxCell id="VOaeHLwioiHnUTtzUJCT-20" value="Update Balance" style="edgeLabel;html=1;align=center;verticalAlign=middle;resizable=0;points=[];" connectable="0" vertex="1" parent="VOaeHLwioiHnUTtzUJCT-19">
          <mxGeometry x="0.1017" y="2" relative="1" as="geometry">
            <mxPoint x="-1" as="offset" />
          </mxGeometry>
        </mxCell>
        <mxCell id="VOaeHLwioiHnUTtzUJCT-21" value="" style="endArrow=classic;html=1;rounded=0;entryX=1;entryY=0.5;entryDx=0;entryDy=0;" edge="1" parent="1" target="VOaeHLwioiHnUTtzUJCT-10">
          <mxGeometry width="50" height="50" relative="1" as="geometry">
            <mxPoint x="800" y="300" as="sourcePoint" />
            <mxPoint x="440" y="350" as="targetPoint" />
          </mxGeometry>
        </mxCell>
        <mxCell id="VOaeHLwioiHnUTtzUJCT-22" value="Update Balance" style="edgeLabel;html=1;align=center;verticalAlign=middle;resizable=0;points=[];" connectable="0" vertex="1" parent="VOaeHLwioiHnUTtzUJCT-21">
          <mxGeometry x="-0.0046" y="4" relative="1" as="geometry">
            <mxPoint as="offset" />
          </mxGeometry>
        </mxCell>
        <mxCell id="VOaeHLwioiHnUTtzUJCT-23" value="" style="endArrow=classic;html=1;rounded=0;entryX=0.99;entryY=0.629;entryDx=0;entryDy=0;entryPerimeter=0;" edge="1" parent="1" target="VOaeHLwioiHnUTtzUJCT-5">
          <mxGeometry width="50" height="50" relative="1" as="geometry">
            <mxPoint x="790" y="300" as="sourcePoint" />
            <mxPoint x="520" y="240" as="targetPoint" />
          </mxGeometry>
        </mxCell>
        <mxCell id="VOaeHLwioiHnUTtzUJCT-24" value="Approve or reject" style="edgeLabel;html=1;align=center;verticalAlign=middle;resizable=0;points=[];" connectable="0" vertex="1" parent="VOaeHLwioiHnUTtzUJCT-23">
          <mxGeometry x="-0.0208" y="2" relative="1" as="geometry">
            <mxPoint as="offset" />
          </mxGeometry>
        </mxCell>
        <mxCell id="VOaeHLwioiHnUTtzUJCT-25" value="Close Loan" style="ellipse;whiteSpace=wrap;html=1;" vertex="1" parent="1">
          <mxGeometry x="370" y="710" width="140" height="70" as="geometry" />
        </mxCell>
        <mxCell id="VOaeHLwioiHnUTtzUJCT-26" value="" style="endArrow=classic;html=1;rounded=0;entryX=0;entryY=0.5;entryDx=0;entryDy=0;" edge="1" parent="1" target="VOaeHLwioiHnUTtzUJCT-25">
          <mxGeometry width="50" height="50" relative="1" as="geometry">
            <mxPoint x="110" y="270" as="sourcePoint" />
            <mxPoint x="380" y="655" as="targetPoint" />
            <Array as="points" />
          </mxGeometry>
        </mxCell>
        <mxCell id="VOaeHLwioiHnUTtzUJCT-27" value="" style="endArrow=classic;html=1;rounded=0;entryX=1;entryY=0.5;entryDx=0;entryDy=0;" edge="1" parent="1" target="VOaeHLwioiHnUTtzUJCT-25">
          <mxGeometry width="50" height="50" relative="1" as="geometry">
            <mxPoint x="800" y="300" as="sourcePoint" />
            <mxPoint x="520" y="655" as="targetPoint" />
          </mxGeometry>
        </mxCell>
        <mxCell id="VOaeHLwioiHnUTtzUJCT-28" value="A" style="edgeLabel;html=1;align=center;verticalAlign=middle;resizable=0;points=[];" connectable="0" vertex="1" parent="VOaeHLwioiHnUTtzUJCT-27">
          <mxGeometry x="-0.0046" y="4" relative="1" as="geometry">
            <mxPoint as="offset" />
          </mxGeometry>
        </mxCell>
        <mxCell id="VOaeHLwioiHnUTtzUJCT-29" value="Text" style="edgeLabel;html=1;align=center;verticalAlign=middle;resizable=0;points=[];" connectable="0" vertex="1" parent="VOaeHLwioiHnUTtzUJCT-27">
          <mxGeometry x="0.0006" y="2" relative="1" as="geometry">
            <mxPoint x="1" as="offset" />
          </mxGeometry>
        </mxCell>
        <mxCell id="VOaeHLwioiHnUTtzUJCT-30" value="Approve&amp;nbsp; or reject" style="edgeLabel;html=1;align=center;verticalAlign=middle;resizable=0;points=[];" connectable="0" vertex="1" parent="VOaeHLwioiHnUTtzUJCT-27">
          <mxGeometry x="-0.0108" y="5" relative="1" as="geometry">
            <mxPoint as="offset" />
          </mxGeometry>
        </mxCell>
      </root>
    </mxGraphModel>
  </diagram>
</mxfile>
